<svg width="141" height="50" viewBox="0 0 141 50" fill="none" xmlns="http://www.w3.org/2000/svg">
<path d="M3.352 24.2747L9.556 8.65466H13.032L19.258 24.2747H15.892L14.616 20.8427H7.862L6.586 24.2747H3.352ZM8.896 18.0707H13.582L11.228 11.8447L8.896 18.0707ZM23.6994 9.51266C23.6994 9.84999 23.6188 10.1507 23.4574 10.4147C23.3108 10.6787 23.0981 10.8913 22.8194 11.0527C22.5554 11.1993 22.2621 11.2727 21.9394 11.2727C21.6168 11.2727 21.3161 11.1993 21.0374 11.0527C20.7734 10.8913 20.5608 10.6787 20.3994 10.4147C20.2528 10.1507 20.1794 9.84999 20.1794 9.51266C20.1794 9.17532 20.2528 8.87466 20.3994 8.61066C20.5608 8.34666 20.7734 8.14132 21.0374 7.99466C21.3161 7.83332 21.6168 7.75266 21.9394 7.75266C22.2621 7.75266 22.5554 7.83332 22.8194 7.99466C23.0981 8.14132 23.3108 8.34666 23.4574 8.61066C23.6188 8.87466 23.6994 9.17532 23.6994 9.51266ZM20.3994 24.2747V12.6587H23.4794V24.2747H20.3994ZM25.5024 24.2747V12.6587H28.3404L28.4504 14.4187C28.7437 13.8027 29.1397 13.3333 29.6384 13.0107C30.1371 12.6733 30.7237 12.5047 31.3984 12.5047C31.6037 12.5047 31.8091 12.5267 32.0144 12.5707C32.2197 12.6 32.4031 12.644 32.5644 12.7027L32.2344 15.7387C32.0731 15.68 31.9044 15.6433 31.7284 15.6287C31.5671 15.5993 31.3984 15.5847 31.2224 15.5847C30.3717 15.5847 29.7191 15.8487 29.2644 16.3767C28.8097 16.89 28.5824 17.6233 28.5824 18.5767V24.2747H25.5024ZM33.8065 24.2747V7.86266H36.8865V14.1327C37.2972 13.5753 37.8105 13.1353 38.4265 12.8127C39.0572 12.49 39.7465 12.3287 40.4945 12.3287C41.2572 12.3287 41.9612 12.4827 42.6065 12.7907C43.2519 13.0987 43.8165 13.5313 44.3005 14.0887C44.7845 14.6313 45.1585 15.2693 45.4225 16.0027C45.7012 16.736 45.8405 17.5353 45.8405 18.4007C45.8405 19.2807 45.7012 20.0947 45.4225 20.8427C45.1439 21.5907 44.7552 22.2507 44.2565 22.8227C43.7579 23.38 43.1712 23.82 42.4965 24.1427C41.8219 24.4507 41.0959 24.6047 40.3185 24.6047C39.5559 24.6047 38.8665 24.4433 38.2505 24.1207C37.6345 23.798 37.1285 23.3433 36.7325 22.7567L36.6445 24.2747H33.8065ZM39.7685 21.8327C40.3259 21.8327 40.8245 21.686 41.2645 21.3927C41.7045 21.0993 42.0492 20.7033 42.2985 20.2047C42.5625 19.6913 42.6945 19.112 42.6945 18.4667C42.6945 17.8213 42.5625 17.2493 42.2985 16.7507C42.0492 16.2373 41.7045 15.834 41.2645 15.5407C40.8245 15.2473 40.3259 15.1007 39.7685 15.1007C39.2112 15.1007 38.7125 15.2473 38.2725 15.5407C37.8325 15.834 37.4805 16.2373 37.2165 16.7507C36.9672 17.2493 36.8425 17.8213 36.8425 18.4667C36.8425 19.112 36.9672 19.6913 37.2165 20.2047C37.4805 20.7033 37.8325 21.0993 38.2725 21.3927C38.7125 21.686 39.2112 21.8327 39.7685 21.8327ZM47.4173 24.2747V12.6587H50.2553L50.3433 14.1547C50.6806 13.5973 51.1426 13.1573 51.7293 12.8347C52.3306 12.4973 53.0126 12.3287 53.7753 12.3287C54.626 12.3287 55.3666 12.534 55.9973 12.9447C56.6426 13.3407 57.1413 13.9127 57.4933 14.6607C57.8453 15.4087 58.0213 16.2887 58.0213 17.3007V24.2747H54.9413V17.6967C54.9413 16.89 54.758 16.2593 54.3913 15.8047C54.0246 15.3353 53.5186 15.1007 52.8733 15.1007C52.404 15.1007 51.9933 15.2107 51.6413 15.4307C51.2893 15.636 51.0106 15.9293 50.8053 16.3107C50.6 16.692 50.4973 17.1247 50.4973 17.6087V24.2747H47.4173ZM60.0398 24.2747V7.86266H63.1198V14.1327C63.5305 13.5753 64.0438 13.1353 64.6598 12.8127C65.2905 12.49 65.9798 12.3287 66.7278 12.3287C67.4905 12.3287 68.1945 12.4827 68.8398 12.7907C69.4851 13.0987 70.0498 13.5313 70.5338 14.0887C71.0178 14.6313 71.3918 15.2693 71.6558 16.0027C71.9345 16.736 72.0738 17.5353 72.0738 18.4007C72.0738 19.2807 71.9345 20.0947 71.6558 20.8427C71.3771 21.5907 70.9885 22.2507 70.4898 22.8227C69.9911 23.38 69.4045 23.82 68.7298 24.1427C68.0551 24.4507 67.3291 24.6047 66.5518 24.6047C65.7891 24.6047 65.0998 24.4433 64.4838 24.1207C63.8678 23.798 63.3618 23.3433 62.9658 22.7567L62.8778 24.2747H60.0398ZM66.0018 21.8327C66.5591 21.8327 67.0578 21.686 67.4978 21.3927C67.9378 21.0993 68.2825 20.7033 68.5318 20.2047C68.7958 19.6913 68.9278 19.112 68.9278 18.4667C68.9278 17.8213 68.7958 17.2493 68.5318 16.7507C68.2825 16.2373 67.9378 15.834 67.4978 15.5407C67.0578 15.2473 66.5591 15.1007 66.0018 15.1007C65.4445 15.1007 64.9458 15.2473 64.5058 15.5407C64.0658 15.834 63.7138 16.2373 63.4498 16.7507C63.2005 17.2493 63.0758 17.8213 63.0758 18.4667C63.0758 19.112 63.2005 19.6913 63.4498 20.2047C63.7138 20.7033 64.0658 21.0993 64.5058 21.3927C64.9458 21.686 65.4445 21.8327 66.0018 21.8327Z" fill="#222222"/>
<rect x="78.75" y="1.02466" width="61.5" height="31.5" rx="7.25" fill="#222222"/>
<path d="M87.0005 24.2747V21.9867C87.5872 21.488 88.1005 21.0553 88.5405 20.6887C88.9805 20.3073 89.3692 19.97 89.7065 19.6767C90.0439 19.3687 90.3445 19.09 90.6085 18.8407C90.8725 18.5913 91.1365 18.3347 91.4005 18.0707C92.0165 17.4547 92.5225 16.9047 92.9185 16.4207C93.3145 15.9367 93.6079 15.482 93.7985 15.0567C94.0039 14.6313 94.1065 14.1913 94.1065 13.7367C94.1065 13.062 93.9159 12.534 93.5345 12.1527C93.1679 11.7567 92.6912 11.5587 92.1045 11.5587C91.5325 11.5587 91.0412 11.742 90.6305 12.1087C90.2345 12.4753 89.9632 12.974 89.8165 13.6047L86.8465 13.0987C87.0225 12.2187 87.3599 11.456 87.8585 10.8107C88.3719 10.1653 89.0025 9.66666 89.7505 9.31466C90.4985 8.94799 91.3199 8.76466 92.2145 8.76466C92.9625 8.76466 93.6445 8.88932 94.2605 9.13866C94.8912 9.38799 95.4339 9.73266 95.8885 10.1727C96.3432 10.6127 96.6952 11.1333 96.9445 11.7347C97.2085 12.336 97.3405 12.9887 97.3405 13.6927C97.3405 14.3527 97.2232 14.976 96.9885 15.5627C96.7539 16.1493 96.3799 16.758 95.8665 17.3887C95.3679 18.0193 94.7225 18.7233 93.9305 19.5007C93.5785 19.838 93.2119 20.1753 92.8305 20.5127C92.4639 20.8353 92.0825 21.1653 91.6865 21.5027H97.6045V24.2747H87.0005ZM104.915 24.6047C104.021 24.6047 103.214 24.4213 102.495 24.0547C101.791 23.688 101.183 23.16 100.669 22.4707C100.171 21.7813 99.7894 20.9527 99.5254 19.9847C99.2614 19.0167 99.1294 17.924 99.1294 16.7067C99.1294 15.4893 99.2614 14.3893 99.5254 13.4067C99.8041 12.424 100.193 11.588 100.691 10.8987C101.205 10.2093 101.821 9.68132 102.539 9.31466C103.273 8.94799 104.094 8.76466 105.003 8.76466C105.898 8.76466 106.697 8.94799 107.401 9.31466C108.12 9.68132 108.729 10.2093 109.227 10.8987C109.741 11.588 110.129 12.4167 110.393 13.3847C110.657 14.3527 110.789 15.4453 110.789 16.6627C110.789 17.88 110.65 18.98 110.371 19.9627C110.107 20.9453 109.719 21.7813 109.205 22.4707C108.707 23.16 108.091 23.688 107.357 24.0547C106.639 24.4213 105.825 24.6047 104.915 24.6047ZM104.959 21.7227C105.81 21.7227 106.463 21.29 106.917 20.4247C107.387 19.5447 107.621 18.298 107.621 16.6847C107.621 15.0713 107.387 13.832 106.917 12.9667C106.463 12.0867 105.81 11.6467 104.959 11.6467C104.109 11.6467 103.449 12.0867 102.979 12.9667C102.525 13.832 102.297 15.0713 102.297 16.6847C102.297 18.298 102.525 19.5447 102.979 20.4247C103.449 21.29 104.109 21.7227 104.959 21.7227ZM112.052 24.2747V21.9867C112.639 21.488 113.152 21.0553 113.592 20.6887C114.032 20.3073 114.421 19.97 114.758 19.6767C115.096 19.3687 115.396 19.09 115.66 18.8407C115.924 18.5913 116.188 18.3347 116.452 18.0707C117.068 17.4547 117.574 16.9047 117.97 16.4207C118.366 15.9367 118.66 15.482 118.85 15.0567C119.056 14.6313 119.158 14.1913 119.158 13.7367C119.158 13.062 118.968 12.534 118.586 12.1527C118.22 11.7567 117.743 11.5587 117.156 11.5587C116.584 11.5587 116.093 11.742 115.682 12.1087C115.286 12.4753 115.015 12.974 114.868 13.6047L111.898 13.0987C112.074 12.2187 112.412 11.456 112.91 10.8107C113.424 10.1653 114.054 9.66666 114.802 9.31466C115.55 8.94799 116.372 8.76466 117.266 8.76466C118.014 8.76466 118.696 8.88932 119.312 9.13866C119.943 9.38799 120.486 9.73266 120.94 10.1727C121.395 10.6127 121.747 11.1333 121.996 11.7347C122.26 12.336 122.392 12.9887 122.392 13.6927C122.392 14.3527 122.275 14.976 122.04 15.5627C121.806 16.1493 121.432 16.758 120.918 17.3887C120.42 18.0193 119.774 18.7233 118.982 19.5007C118.63 19.838 118.264 20.1753 117.882 20.5127C117.516 20.8353 117.134 21.1653 116.738 21.5027H122.656V24.2747H112.052ZM127.701 24.2747V12.4387L124.621 14.1547L123.587 11.5587L128.141 9.09466H130.803V24.2747H127.701Z" fill="white"/>
<rect x="78.75" y="1.02466" width="61.5" height="31.5" rx="7.25" stroke="#222222" stroke-width="1.5"/>
</svg>
